<?xml version="1.0" encoding="utf-8"?>
<!-- Generator: Adobe Illustrator 20.1.0, SVG Export Plug-In . SVG Version: 6.00 Build 0)  -->
<svg version="1.1" id="Layer_1" xmlns="http://www.w3.org/2000/svg" xmlns:xlink="http://www.w3.org/1999/xlink" x="0px" y="0px"
	 viewBox="0 0 24.5 24.5" style="enable-background:new 0 0 24.5 24.5;" xml:space="preserve">
<style type="text/css">
	.st0{fill:#F1EA39;}
	.st1{fill:#F7BA18;}
	.st2{fill:#F89825;}
	.st3{fill:#1D92CC;}
	.st4{fill:#60AD45;}
	.st5{fill:#CEDC37;}
	.st6{fill:#7D3594;}
	.st7{fill:#45338F;}
	.st8{fill:#3D5CA9;}
	.st9{fill:#EE5625;}
	.st10{fill:#EB3626;}
	.st11{fill:#A6204B;}
</style>
<g>
	<path class="st0" d="M16.9,4.2c-1.4-0.8-3-1.2-4.6-1.2V0c2.2,0,4.3,0.6,6.1,1.6L16.9,4.2z"/>
	<path class="st1" d="M20.3,7.6c-0.8-1.4-2-2.6-3.4-3.4l1.5-2.6c1.9,1.1,3.4,2.6,4.5,4.5L20.3,7.6z"/>
	<path class="st2" d="M24.5,12.3h-3c0-1.6-0.4-3.2-1.2-4.6l2.6-1.5C23.9,8,24.5,10.1,24.5,12.3z"/>
	<path class="st3" d="M3,12.3H0C0,10.1,0.6,8,1.6,6.1l2.6,1.5C3.4,9,3,10.6,3,12.3z"/>
	<path class="st4" d="M4.2,7.6L1.6,6.1c1.1-1.9,2.6-3.4,4.5-4.5l1.5,2.6C6.2,5.1,5.1,6.2,4.2,7.6z"/>
	<path class="st5" d="M7.6,4.2L6.1,1.6C8,0.6,10.1,0,12.3,0v3C10.6,3,9,3.4,7.6,4.2z"/>
	<path class="st6" d="M12.3,24.5c-2.2,0-4.3-0.6-6.1-1.6l1.5-2.6c1.4,0.8,3,1.2,4.6,1.2V24.5z"/>
	<path class="st7" d="M6.1,22.9c-1.9-1.1-3.4-2.6-4.5-4.5l2.6-1.5c0.8,1.4,2,2.6,3.4,3.4L6.1,22.9z"/>
	<path class="st8" d="M1.6,18.4c-1.1-1.9-1.6-4-1.6-6.1h3c0,1.6,0.4,3.2,1.2,4.6L1.6,18.4z"/>
	<path class="st9" d="M22.9,18.4l-2.6-1.5c0.8-1.4,1.2-3,1.2-4.6h3C24.5,14.4,23.9,16.5,22.9,18.4z"/>
	<path class="st10" d="M18.4,22.9l-1.5-2.6c1.4-0.8,2.6-2,3.4-3.4l2.6,1.5C21.8,20.2,20.2,21.8,18.4,22.9z"/>
	<path class="st11" d="M12.3,24.5v-3c1.6,0,3.2-0.4,4.6-1.2l1.5,2.6C16.5,23.9,14.4,24.5,12.3,24.5z"/>
</g>
</svg>
