<?xml version="1.0" encoding="utf-8"?>
<!-- Generator: Adobe Illustrator 20.1.0, SVG Export Plug-In . SVG Version: 6.00 Build 0)  -->
<svg version="1.1" xmlns="http://www.w3.org/2000/svg" xmlns:xlink="http://www.w3.org/1999/xlink" x="0px" y="0px"
	 viewBox="0 0 482.1 70.9" style="enable-background:new 0 0 482.1 70.9;" xml:space="preserve">
<style type="text/css">
	.st0{display:none;}
	.st1{display:inline;}
	.st2{fill:#69AA8C;}
	.st3{fill:#00AAAB;}
	.st4{fill:#ADD9B2;}
	.st5{fill:#94D4D8;}
	.st6{fill:#CED064;}
	.st7{fill:#E36D31;}
	.st8{fill:#EB5383;}
	.st9{fill:#F2A93A;}
	.st10{fill:#53479B;}
	.st11{fill:#EB2727;}
	.st12{fill:#346DAC;}
	.st13{fill:#B79C70;}
	.st14{fill:#A61E22;}
	.st15{fill:#006C3B;}
	.st16{fill:#E22A7D;}
	.st17{fill:#48B86E;}
	.st18{fill:#066FA6;}
	.st19{fill:#539BB2;}
	.st20{fill:#E15B41;}
	.st21{fill:#DA2229;}
	.st22{fill:#8BD1D1;}
	.st23{fill:#6CC8C6;}
	.st24{fill:#7DC1EA;}
	.st25{fill:#57B5E6;}
	.st26{fill:#FFDD50;}
	.st27{fill:#FFD700;}
	.st28{fill:#BFC85A;}
	.st29{fill:#B0BE36;}
	.st30{fill:#9C77B4;}
	.st31{fill:#8C5DA5;}
	.st32{fill:#F89A4B;}
	.st33{fill:#F48420;}
	.st34{fill:#009B9B;}
	.st35{fill:#DC5826;}
	.st36{fill:#5E3A29;}
	.st37{fill:#EA495C;}
	.st38{fill:#EED923;}
	.st39{fill:#83CBCE;}
</style>
<g id="SWATCHES" class="st0">
	<g class="st1">
		<rect x="-540.9" y="82.8" class="st2" width="55.4" height="42.5"/>
		<rect x="-481.1" y="82.8" class="st3" width="55.4" height="42.5"/>
		<rect x="-540.9" y="128" class="st4" width="55.4" height="21.3"/>
		<rect x="-481.1" y="128" class="st5" width="55.4" height="21.3"/>
		<rect x="-253.6" y="42.9" class="st6" width="92.3" height="79.8"/>
		<rect x="-353.4" y="133.5" class="st7" width="92.3" height="79.8"/>
		<rect x="-153.8" y="42.9" class="st8" width="92.3" height="79.8"/>
		<rect x="-353.4" y="42.9" class="st9" width="92.3" height="79.8"/>
		<rect x="-253.6" y="133.5" class="st10" width="92.3" height="79.8"/>
		<rect x="-153.8" y="133.5" class="st11" width="92.3" height="79.8"/>
		<rect x="-253.6" y="216.8" class="st12" width="21.6" height="23"/>
		<rect x="-206.5" y="216.8" class="st13" width="21.6" height="23"/>
		<rect x="-230.1" y="216.8" class="st14" width="21.6" height="23"/>
		<rect x="-183" y="216.8" class="st15" width="21.6" height="23"/>
		<rect x="-310.4" y="722.6" class="st16" width="203.9" height="19"/>
		<rect x="-310.4" y="697.6" class="st17" width="203.9" height="19"/>
		<rect x="-310.4" y="647.8" class="st11" width="203.9" height="19"/>
		<rect x="-310.4" y="672.7" class="st18" width="203.9" height="19"/>
		<rect x="-310.4" y="399.6" class="st19" width="203.9" height="19"/>
		<rect x="-310.4" y="424.4" class="st9" width="203.9" height="19"/>
		<rect x="-310.4" y="448.7" class="st6" width="203.9" height="19"/>
		<rect x="-310.4" y="473.5" class="st8" width="203.9" height="19"/>
		<rect x="-310.4" y="497.6" class="st7" width="203.9" height="19"/>
		<rect x="-310.4" y="523.4" class="st10" width="203.9" height="19"/>
		<rect x="-310.4" y="549" class="st13" width="203.9" height="19"/>
		<rect x="-310.4" y="574" class="st12" width="203.9" height="19"/>
		<rect x="-310.4" y="599.1" class="st14" width="203.9" height="19"/>
		<rect x="-310.4" y="623.5" class="st15" width="203.9" height="19"/>
		<rect x="-89" y="311.8" class="st20" width="53.9" height="41.5"/>
		<rect x="-89" y="311.8" class="st21" width="41.5" height="41.5"/>
		<rect x="-309.8" y="329.9" class="st22" width="53.9" height="41.5"/>
		<rect x="-309.8" y="329.9" class="st23" width="41.5" height="41.5"/>
		<rect x="-437.8" y="329.9" class="st24" width="53.9" height="41.5"/>
		<rect x="-437.8" y="329.9" class="st25" width="41.5" height="41.5"/>
		<rect x="-181.9" y="263.1" class="st26" width="53.9" height="41.5"/>
		<rect x="-181.9" y="263.1" class="st27" width="41.5" height="41.5"/>
		<rect x="-181.9" y="329.9" class="st28" width="53.9" height="41.5"/>
		<rect x="-181.9" y="329.9" class="st29" width="41.5" height="41.5"/>
		<rect x="-437.8" y="263.1" class="st30" width="53.9" height="41.5"/>
		<rect x="-437.8" y="263.1" class="st31" width="41.5" height="41.5"/>
		<rect x="-309.8" y="263.1" class="st32" width="53.9" height="41.5"/>
		<rect x="-309.8" y="263.1" class="st33" width="41.5" height="41.5"/>
	</g>
</g>
<g id="Layer_1">
	<path class="st34" d="M36.3,13.9c-1-1.3-2-2.3-3.2-3c-1.2-0.7-2.4-1.2-3.8-1.6c-1.4-0.4-2.8-0.6-4.1-0.6c-2.3,0-4.3,0.3-6,0.8
		c-1.7,0.5-3.1,1.2-4.2,2.1c-1.1,0.9-2,1.9-2.5,3.1c-0.6,1.2-0.9,2.5-0.9,3.8c0,2,0.4,3.6,1.1,4.8c0.7,1.2,1.6,2.2,2.7,2.9
		c1.1,0.7,2.3,1.3,3.6,1.7c1.3,0.4,2.6,0.8,3.8,1.3l9.1,3c2.7,0.9,5.1,1.9,7.2,3c2.1,1.1,3.8,2.4,5.2,3.9c1.4,1.5,2.5,3.3,3.2,5.2
		c0.7,2,1.1,4.3,1.1,6.9c0,2.8-0.6,5.4-1.7,7.8c-1.2,2.4-2.8,4.5-4.8,6.2c-2.1,1.8-4.5,3.2-7.4,4.2c-2.9,1-6,1.5-9.4,1.5
		c-3.5,0-6.5-0.4-9-1.2c-2.5-0.8-4.6-1.9-6.3-3.2c-1.7-1.3-3-2.9-4.1-4.6c-1-1.7-1.8-3.5-2.4-5.3H0V49h11.3c0,3.3,0.4,5.7,1.1,7.1
		c0.7,1.4,1.7,2.5,2.9,3.4c1.3,0.9,2.8,1.6,4.5,2.1c1.7,0.5,3.7,0.7,5.8,0.7c2,0,3.9-0.2,5.5-0.7c1.6-0.5,3-1.2,4.2-2.1
		c1.2-0.9,2-2,2.7-3.3c0.6-1.3,0.9-2.8,0.9-4.4c0-1.8-0.4-3.4-1.1-4.6c-0.8-1.3-1.7-2.4-2.9-3.3c-1.2-0.9-2.5-1.6-3.9-2.2
		c-1.4-0.6-2.8-1.1-4.1-1.5l-9.8-2.8c-2.2-0.7-4.1-1.5-5.9-2.5c-1.8-1-3.3-2.3-4.6-3.7c-1.3-1.5-2.3-3.2-2.9-5.1c-0.7-2-1-4.2-1-6.8
		c0-2.6,0.5-5,1.5-7.3c1-2.3,2.5-4.3,4.5-6c2-1.7,4.4-3,7.3-4c2.9-1,6.1-1.5,9.8-1.5c2.4,0,4.7,0.3,6.7,0.9c2.1,0.6,3.9,1.4,5.6,2.4
		c1.7,1,3.1,2.3,4.4,3.7c1.3,1.5,2.3,3,3.2,4.8h3.4v7.7h-11C37.7,17.2,37.3,15.2,36.3,13.9z"/>
	<path class="st35" d="M96.4,61.7h6.2v-53H87.1v10.6h-9.2v-18h60.7v18h-9.2V8.7h-18v53h7v7.7H96.4V61.7z"/>
	<path class="st36" d="M170.9,1.3h22.1v7.8h-7v31.7c0,3.8,0.4,7,1.3,9.7c0.9,2.7,2,4.9,3.5,6.6c1.5,1.7,3.3,2.9,5.4,3.7
		c2.1,0.8,4.4,1.2,6.9,1.2c2.6,0,4.9-0.3,7.1-1c2.2-0.7,4-1.8,5.5-3.5c1.5-1.6,2.7-3.8,3.6-6.5c0.9-2.7,1.3-6.1,1.3-10.1V9.1h-7.4
		V1.3h22.1v7.8h-6.1v30.7c0,4.9-0.7,9.3-2,13.1c-1.4,3.8-3.2,7-5.6,9.6c-2.4,2.6-5.2,4.5-8.4,5.9c-3.2,1.3-6.6,2-10.3,2
		c-3.6,0-7-0.7-10.1-2c-3.1-1.3-5.9-3.2-8.2-5.8c-2.3-2.5-4.1-5.7-5.5-9.3c-1.3-3.7-2-7.9-2-12.6V9.1h-6.2V1.3z"/>
	<path class="st37" d="M267.1,1.3h25.3c3.1,0,6.1,0.4,8.9,1.2c2.8,0.8,5.4,1.9,7.9,3.4c2.4,1.5,4.6,3.2,6.6,5.3
		c2,2.1,3.7,4.3,5.1,6.9s2.5,5.2,3.2,8.1c0.7,2.9,1.1,5.9,1.1,9c0,3.2-0.4,6.2-1.1,9.1c-0.7,2.9-1.8,5.6-3.2,8.2
		c-1.4,2.5-3.1,4.9-5.1,6.9c-2,2.1-4.2,3.9-6.6,5.3c-2.4,1.5-5,2.6-7.9,3.4c-2.8,0.8-5.8,1.2-8.9,1.2h-25.3v-7.7h6.5V9.1h-6.5V1.3z
		 M282.4,9.1v52.6H293c3.1,0,6.1-0.7,8.9-2.1c2.8-1.4,5.2-3.3,7.3-5.6c2.1-2.4,3.7-5.2,4.9-8.4c1.2-3.2,1.8-6.7,1.8-10.4
		c0-3.7-0.6-7.1-1.8-10.2c-1.2-3.2-2.8-5.9-4.9-8.3c-2.1-2.4-4.5-4.2-7.3-5.5c-2.8-1.3-5.7-2-8.9-2H282.4z"/>
	<path class="st38" d="M360.1,1.3h21.7v7.8h-6.5v52.6h6.5v7.7h-21.7v-7.7h6.5V9.1h-6.5V1.3z"/>
	<path class="st39" d="M449.5,70.8c-4.7,0-9-0.9-12.9-2.6c-3.9-1.8-7.4-4.2-10.4-7.5c-3.1-3.2-5.4-7.1-7-11.5
		c-1.6-4.4-2.4-9-2.4-13.8c0-4.9,0.8-9.5,2.4-13.8c1.6-4.3,3.8-8.1,6.7-11.3c2.9-3.2,6.3-5.7,10.3-7.5c4-1.8,8.4-2.8,13.2-2.8
		c4.8,0,9.2,0.9,13.3,2.8c4,1.8,7.5,4.4,10.3,7.5c2.9,3.2,5.1,6.9,6.7,11.3c1.6,4.3,2.4,8.9,2.4,13.8c0,4.9-0.8,9.5-2.4,13.8
		c-1.6,4.3-3.8,8-6.7,11.3c-2.9,3.2-6.3,5.7-10.3,7.6C458.7,69.9,454.3,70.8,449.5,70.8z M449.5,62.4c3.6,0,6.8-0.7,9.7-2.2
		c2.9-1.5,5.4-3.4,7.4-5.9c2-2.5,3.6-5.3,4.7-8.6c1.1-3.3,1.7-6.7,1.7-10.3c0-3.7-0.6-7.3-1.8-10.8c-1.2-3.5-2.9-6.4-5.1-8.8
		c-2.2-2.4-4.7-4.2-7.6-5.5c-2.9-1.3-5.9-2-9-2c-3.6,0-6.8,0.7-9.7,2.2c-2.9,1.5-5.4,3.4-7.4,5.9c-2,2.5-3.6,5.3-4.7,8.6
		c-1.1,3.3-1.7,6.7-1.7,10.3c0,4.2,0.6,7.9,1.8,11.2c1.2,3.3,2.9,6,4.9,8.2c2,2.2,4.4,4,7.2,5.5C442.7,61.7,445.9,62.4,449.5,62.4z"
		/>
	<g>
		<path class="st39" d="M438.9,21.8l-1.6,5.1h22.7c0,0,2.1,3.8-2.4,5.2h-10.9l-1.4,4.9h9.9c0,0,4.1,2.3-0.6,5.2h-4.4l-1.7,5.3h7.1
			c0,0,6-1.4,6.7-5.6c0,0,1-4-1-6.4c0,0,4.6-1.7,4.6-6.9c0,0,0.9-3.9-3.1-5.7l-0.8-0.3L438.9,21.8z"/>
		<polygon class="st39" points="439.4,29.6 444.9,29.6 440.5,42.4 446.7,42.4 445.4,47 433,47 		"/>
	</g>
</g>
</svg>
